<?xml version="1.0" encoding="UTF-8"?>
<svg width="16px" height="16px" viewBox="0 0 16 16" version="1.1" xmlns="http://www.w3.org/2000/svg" xmlns:xlink="http://www.w3.org/1999/xlink">
    <title>4CFB2EC1-A64F-4208-995D-EBD7CF00AE4B</title>
    <g id="Components" stroke="none" stroke-width="1" fill="none" fill-rule="evenodd">
        <g id="Icons" transform="translate(-43.000000, -57.000000)" fill="#000000" fill-rule="nonzero">
            <g id="Icons/Close" transform="translate(43.000000, 57.000000)">
                <g id="Group" transform="translate(4.000000, 4.000000)">
                    <path d="M6.96707637,-0.868423251 C7.44669329,-1.36497026 8.23803051,-1.37869481 8.73457752,-0.899077892 C9.19802139,-0.451435435 9.24087326,0.267750037 8.85458077,0.76536302 L8.76523216,0.868423251 L5.74,4 L8.76523216,7.13157675 C9.21287462,7.59502062 9.23076184,8.31525952 8.82744617,8.79917794 L8.73457752,8.89907789 C8.27113364,9.34672035 7.55089474,9.36460757 7.06697632,8.9612919 L6.96707637,8.86842325 L3.10345895,4.86842325 C2.66675589,4.41630492 2.63764235,3.71713163 3.01611834,3.23207264 L3.10345895,3.13157675 L6.96707637,-0.868423251 Z" id="Icon-Path"></path>
                    <path d="M2.96453953,-0.868423251 C3.44415645,-1.36497026 4.23549366,-1.37869481 4.73204067,-0.899077892 C5.19548455,-0.451435435 5.23833641,0.267750037 4.85204393,0.76536302 L4.76269531,0.868423251 L1.738,4 L4.76269531,7.13157675 C5.21033777,7.59502062 5.22822499,8.31525952 4.82490932,8.79917794 L4.73204067,8.89907789 C4.2685968,9.34672035 3.5483579,9.36460757 3.06443947,8.9612919 L2.96453953,8.86842325 L-0.899077892,4.86842325 C-1.33578096,4.41630492 -1.3648945,3.71713163 -0.986418506,3.23207264 L-0.899077892,3.13157675 L2.96453953,-0.868423251 Z" id="Icon-Path-Copy" transform="translate(1.931809, 4.000000) rotate(-180.000000) translate(-1.931809, -4.000000) "></path>
                </g>
            </g>
        </g>
    </g>
</svg>